<svg xmlns="http://www.w3.org/2000/svg" xmlns:xlink="http://www.w3.org/1999/xlink" width="3508" zoomAndPan="magnify" viewBox="0 0 2631 2630.999883" height="3508" preserveAspectRatio="xMidYMid meet" version="1.0"><metadata/><defs><g/><clipPath id="1dcac3c6c0"><path d="M 171.757812 171.757812 L 2459.234375 171.757812 L 2459.234375 2459.234375 L 171.757812 2459.234375 Z M 171.757812 171.757812 " clip-rule="nonzero"/></clipPath></defs><rect x="-263.1" width="3157.2" fill="#ffffff" y="-263.099988" height="3157.19986" fill-opacity="1"/><rect x="-263.1" width="3157.2" fill="#0d0d12" y="-263.099988" height="3157.19986" fill-opacity="1"/><g clip-path="url(#1dcac3c6c0)"><path stroke-linecap="butt" transform="matrix(0.75, 0, 0, 0.75, 171.75794, 171.757881)" fill="none" stroke-linejoin="miter" d="M -0.000169607 -0.0000916072 L 3049.969038 -0.0000916072 L 3049.969038 3049.969116 L -0.000169607 3049.969116 Z M -0.000169607 -0.0000916072 " stroke="#c9a96e" stroke-width="94" stroke-opacity="1" stroke-miterlimit="4"/></g><g fill="#e8e4dc" fill-opacity="1"><g transform="translate(436.605284, 1594.841527)"><g><path d="M 542.171875 -395.703125 L 512.09375 -395.703125 C 504.03125 -419.398438 491.078125 -444.785156 473.234375 -471.859375 C 455.398438 -498.941406 438.929688 -513.523438 423.828125 -515.609375 C 415.492188 -516.648438 405.207031 -517.5625 392.96875 -518.34375 C 380.726562 -519.125 370.179688 -519.515625 361.328125 -519.515625 L 342.96875 -519.515625 L 342.96875 -84.765625 C 342.96875 -75.390625 344.660156 -67.117188 348.046875 -59.953125 C 351.429688 -52.796875 358.070312 -47.132812 367.96875 -42.96875 C 373.957031 -40.625 383.265625 -38.210938 395.890625 -35.734375 C 408.523438 -33.265625 419.269531 -31.507812 428.125 -30.46875 L 428.125 0 L 119.140625 0 L 119.140625 -30.46875 C 126.691406 -31.25 137.300781 -32.351562 150.96875 -33.78125 C 164.644531 -35.21875 173.957031 -36.976562 178.90625 -39.0625 C 189.0625 -43.226562 195.832031 -48.828125 199.21875 -55.859375 C 202.601562 -62.890625 204.296875 -71.222656 204.296875 -80.859375 L 204.296875 -519.515625 L 185.9375 -519.515625 C 177.082031 -519.515625 166.535156 -519.125 154.296875 -518.34375 C 142.054688 -517.5625 131.769531 -516.648438 123.4375 -515.609375 C 108.332031 -513.523438 91.859375 -498.941406 74.015625 -471.859375 C 56.179688 -444.785156 43.226562 -419.398438 35.15625 -395.703125 L 5.078125 -395.703125 L 5.078125 -554.28125 L 542.171875 -554.28125 Z M 542.171875 -395.703125 "/></g></g></g><g fill="#e8e4dc" fill-opacity="1"><g transform="translate(977.205912, 1594.841527)"><g><path d="M 628.5 0 L 326.5625 0 L 326.5625 -30.46875 C 340.625 -31.507812 357.160156 -34.046875 376.171875 -38.078125 C 395.179688 -42.117188 404.6875 -47.132812 404.6875 -53.125 C 404.6875 -55.207031 404.488281 -57.550781 404.09375 -60.15625 C 403.707031 -62.757812 402.601562 -66.273438 400.78125 -70.703125 L 353.515625 -185.546875 L 162.109375 -185.546875 C 157.679688 -174.867188 152.796875 -162.367188 147.453125 -148.046875 C 142.117188 -133.722656 137.5 -120.960938 133.59375 -109.765625 C 128.644531 -95.179688 125.710938 -84.632812 124.796875 -78.125 C 123.890625 -71.613281 123.4375 -67.054688 123.4375 -64.453125 C 123.4375 -56.117188 129.75 -49.019531 142.375 -43.15625 C 155.007812 -37.300781 176.039062 -33.070312 205.46875 -30.46875 L 205.46875 0 L -21.875 0 L -21.875 -30.46875 C -13.28125 -30.988281 -3.582031 -32.351562 7.21875 -34.5625 C 18.03125 -36.78125 26.5625 -39.84375 32.8125 -43.75 C 43.488281 -50 52.535156 -57.679688 59.953125 -66.796875 C 67.378906 -75.910156 73.566406 -86.71875 78.515625 -99.21875 C 108.722656 -172.394531 138.992188 -245.703125 169.328125 -319.140625 C 199.671875 -392.578125 233.203125 -473.5625 269.921875 -562.09375 L 348.046875 -562.09375 C 399.085938 -436.582031 439.0625 -337.367188 467.96875 -264.453125 C 496.875 -191.535156 521.476562 -131.117188 541.78125 -83.203125 C 545.164062 -75.390625 549.460938 -68.289062 554.671875 -61.90625 C 559.878906 -55.53125 567.300781 -49.476562 576.9375 -43.75 C 584.226562 -39.582031 592.691406 -36.457031 602.328125 -34.375 C 611.960938 -32.289062 620.6875 -30.988281 628.5 -30.46875 Z M 337.5 -224.21875 L 257.03125 -425 L 177.734375 -224.21875 Z M 337.5 -224.21875 "/></g></g></g><g fill="#e8e4dc" fill-opacity="1"><g transform="translate(1577.181785, 1594.841527)"><g><path d="M 644.125 -225.390625 C 636.050781 -224.609375 628.890625 -223.695312 622.640625 -222.65625 C 616.390625 -221.613281 608.578125 -219.53125 599.203125 -216.40625 C 588.523438 -213.019531 581.492188 -207.421875 578.109375 -199.609375 C 574.722656 -191.796875 573.03125 -183.59375 573.03125 -175 L 573.03125 -110.546875 C 573.03125 -97.523438 573.160156 -87.039062 573.421875 -79.09375 C 573.679688 -71.15625 574.070312 -61.328125 574.59375 -49.609375 C 548.550781 -33.984375 510.078125 -19.269531 459.171875 -5.46875 C 408.265625 8.332031 361.457031 15.234375 318.75 15.234375 C 278.644531 15.234375 241.015625 9.113281 205.859375 -3.125 C 170.703125 -15.363281 139.84375 -33.722656 113.28125 -58.203125 C 86.71875 -82.421875 65.816406 -112.5 50.578125 -148.4375 C 35.347656 -184.375 27.734375 -225.519531 27.734375 -271.875 C 27.734375 -315.101562 34.894531 -355.078125 49.21875 -391.796875 C 63.539062 -428.515625 84.242188 -460.15625 111.328125 -486.71875 C 137.890625 -513.007812 170.242188 -533.316406 208.390625 -547.640625 C 246.546875 -561.960938 288.800781 -569.125 335.15625 -569.125 C 366.664062 -569.125 395.832031 -565.28125 422.65625 -557.59375 C 449.476562 -549.914062 471.613281 -541.648438 489.0625 -532.796875 L 513.265625 -554.28125 L 547.25 -554.28125 L 550.765625 -351.953125 L 516.390625 -351.953125 C 496.609375 -412.628906 472.914062 -457.675781 445.3125 -487.09375 C 417.707031 -516.519531 382.8125 -531.234375 340.625 -531.234375 C 290.625 -531.234375 252.015625 -509.359375 224.796875 -465.609375 C 197.585938 -421.867188 183.984375 -361.585938 183.984375 -284.765625 C 183.984375 -203.253906 197.328125 -139.453125 224.015625 -93.359375 C 250.710938 -47.265625 288.539062 -24.21875 337.5 -24.21875 C 360.414062 -24.21875 380.789062 -27.664062 398.625 -34.5625 C 416.46875 -41.46875 430.335938 -49.476562 440.234375 -58.59375 L 440.234375 -171.09375 C 440.234375 -180.46875 438.539062 -188.34375 435.15625 -194.71875 C 431.769531 -201.101562 425 -206.640625 414.84375 -211.328125 C 407.03125 -214.972656 397.265625 -217.96875 385.546875 -220.3125 C 373.828125 -222.65625 364.0625 -224.347656 356.25 -225.390625 L 356.25 -255.859375 L 644.125 -255.859375 Z M 644.125 -225.390625 "/></g></g></g></svg>