<svg xmlns="http://www.w3.org/2000/svg" xmlns:xlink="http://www.w3.org/1999/xlink" width="1920" zoomAndPan="magnify" viewBox="0 0 1440 809.999993" height="1080" preserveAspectRatio="xMidYMid meet" version="1.0"><metadata/><path stroke-linecap="butt" transform="matrix(0.955097, 0, 0, 0.954901, -53.13235, -17.79515)" fill="none" stroke-linejoin="miter" d="M -0.000483925 0.00228417 L 1682.641588 0.00228417 L 1682.641588 882.78398 L -0.000483925 882.78398 Z M -0.000483925 0.00228417 " stroke="#c9a96e" stroke-width="22" stroke-opacity="1" stroke-miterlimit="4"/><path fill="#e8e4dc" d="M 280.082031 360.25 L 268.160156 360.25 C 264.960938 350.851562 259.828125 340.785156 252.761719 330.050781 C 245.6875 319.324219 239.160156 313.550781 233.179688 312.722656 C 229.878906 312.316406 225.800781 311.957031 220.945312 311.648438 C 216.089844 311.332031 211.910156 311.171875 208.40625 311.171875 L 201.125 311.171875 L 201.125 483.453125 C 201.125 487.183594 201.792969 490.464844 203.136719 493.300781 C 204.472656 496.140625 207.105469 498.382812 211.035156 500.023438 C 213.40625 500.953125 217.09375 501.910156 222.097656 502.890625 C 227.113281 503.875 231.371094 504.570312 234.871094 504.976562 L 234.871094 517.054688 L 112.402344 517.054688 L 112.402344 504.976562 C 115.394531 504.675781 119.605469 504.238281 125.015625 503.664062 C 130.4375 503.097656 134.132812 502.402344 136.097656 501.574219 C 140.117188 499.917969 142.796875 497.695312 144.136719 494.910156 C 145.492188 492.125 146.167969 488.824219 146.167969 485.003906 L 146.167969 311.171875 L 138.886719 311.171875 C 135.367188 311.171875 131.183594 311.332031 126.328125 311.648438 C 121.484375 311.957031 117.414062 312.316406 114.113281 312.722656 C 108.128906 313.550781 101.601562 319.324219 94.53125 330.050781 C 87.460938 340.785156 82.320312 350.851562 79.113281 360.25 L 67.191406 360.25 L 67.191406 297.386719 L 280.082031 297.386719 Z M 280.082031 360.25 " fill-opacity="1" fill-rule="nonzero"/><path fill="#e8e4dc" d="M 528.574219 517.054688 L 408.886719 517.054688 L 408.886719 504.976562 C 414.457031 504.570312 421.011719 503.566406 428.546875 501.972656 C 436.078125 500.371094 439.847656 498.382812 439.847656 496.003906 C 439.847656 495.171875 439.769531 494.246094 439.609375 493.21875 C 439.460938 492.1875 439.03125 490.792969 438.316406 489.042969 L 419.570312 443.527344 L 343.703125 443.527344 C 341.949219 447.757812 340.011719 452.710938 337.890625 458.386719 C 335.78125 464.066406 333.953125 469.121094 332.398438 473.546875 C 330.433594 479.328125 329.277344 483.511719 328.917969 486.097656 C 328.558594 488.675781 328.378906 490.476562 328.378906 491.507812 C 328.378906 494.8125 330.878906 497.625 335.882812 499.945312 C 340.894531 502.265625 349.234375 503.941406 360.894531 504.976562 L 360.894531 517.054688 L 270.777344 517.054688 L 270.777344 504.976562 C 274.1875 504.769531 278.035156 504.222656 282.316406 503.347656 C 286.601562 502.472656 289.984375 501.257812 292.464844 499.707031 C 296.691406 497.238281 300.273438 494.207031 303.210938 490.59375 C 306.15625 486.972656 308.605469 482.691406 310.570312 477.742188 C 322.550781 448.738281 334.546875 419.6875 346.566406 390.589844 C 358.59375 361.480469 371.886719 329.386719 386.441406 294.304688 L 417.402344 294.304688 C 437.628906 344.039062 453.476562 383.355469 464.9375 412.253906 C 476.402344 441.152344 486.15625 465.101562 494.210938 484.089844 C 495.546875 487.183594 497.242188 489.992188 499.304688 492.523438 C 501.371094 495.046875 504.316406 497.4375 508.136719 499.707031 C 511.027344 501.367188 514.386719 502.605469 518.207031 503.425781 C 522.027344 504.25 525.476562 504.769531 528.574219 504.976562 Z M 413.226562 428.207031 L 381.328125 348.632812 L 349.890625 428.207031 Z M 413.226562 428.207031 " fill-opacity="1" fill-rule="nonzero"/><path fill="#e8e4dc" d="M 772.5625 427.730469 C 769.363281 428.046875 766.523438 428.417969 764.046875 428.824219 C 761.578125 429.238281 758.480469 430.058594 754.753906 431.292969 C 750.519531 432.632812 747.734375 434.851562 746.398438 437.957031 C 745.054688 441.050781 744.386719 444.296875 744.386719 447.703125 L 744.386719 473.246094 C 744.386719 478.410156 744.4375 482.566406 744.546875 485.71875 C 744.652344 488.863281 744.804688 492.757812 745.003906 497.398438 C 734.683594 503.59375 719.433594 509.425781 699.257812 514.886719 C 679.082031 520.34375 660.527344 523.082031 643.605469 523.082031 C 627.695312 523.082031 612.773438 520.660156 598.835938 515.820312 C 584.90625 510.964844 572.679688 503.695312 562.164062 493.996094 C 551.625 484.398438 543.339844 472.472656 537.289062 458.226562 C 531.25 443.984375 528.238281 427.679688 528.238281 409.308594 C 528.238281 392.191406 531.070312 376.355469 536.753906 361.800781 C 542.429688 347.238281 550.640625 334.703125 561.386719 324.183594 C 571.902344 313.757812 584.726562 305.710938 599.847656 300.03125 C 614.972656 294.359375 631.714844 291.519531 650.089844 291.519531 C 662.585938 291.519531 674.148438 293.042969 684.773438 296.09375 C 695.410156 299.132812 704.183594 302.398438 711.097656 305.902344 L 720.707031 297.386719 L 734.179688 297.386719 L 735.570312 377.578125 L 721.941406 377.578125 C 714.085938 353.535156 704.691406 335.683594 693.746094 324.023438 C 682.8125 312.355469 668.984375 306.515625 652.261719 306.515625 C 632.441406 306.515625 617.140625 315.191406 606.355469 332.539062 C 595.570312 349.875 590.179688 373.757812 590.179688 404.195312 C 590.179688 436.503906 595.460938 461.796875 606.039062 480.070312 C 616.621094 498.332031 631.617188 507.464844 651.027344 507.464844 C 660.109375 507.464844 668.1875 506.101562 675.261719 503.367188 C 682.332031 500.621094 687.824219 497.449219 691.738281 493.835938 L 691.738281 449.253906 C 691.738281 445.546875 691.066406 442.421875 689.726562 439.886719 C 688.382812 437.355469 685.707031 435.160156 681.6875 433.300781 C 678.585938 431.859375 674.710938 430.667969 670.070312 429.738281 C 665.421875 428.8125 661.558594 428.144531 658.46875 427.730469 L 658.46875 415.65625 L 772.5625 415.65625 Z M 772.5625 427.730469 " fill-opacity="1" fill-rule="nonzero"/><path stroke-linecap="butt" transform="matrix(0, 0.954901, -0.955097, 0, 846.10086, 275.900718)" fill="none" stroke-linejoin="miter" d="M 0.00170241 1.999225 L 275.455752 1.999225 " stroke="#c9a96e" stroke-width="4" stroke-opacity="1" stroke-miterlimit="4"/><path fill="#c9a96e" d="M 944.515625 324.410156 L 944.515625 289.777344 L 950.386719 289.777344 L 950.386719 324.410156 Z M 932.898438 294.113281 L 932.898438 288.761719 L 961.988281 288.761719 L 961.988281 294.113281 Z M 932.898438 294.113281 " fill-opacity="1" fill-rule="nonzero"/><path fill="#c9a96e" d="M 977.328125 324.410156 L 977.328125 288.761719 L 983.179688 288.761719 L 983.179688 324.410156 Z M 981.347656 324.410156 L 981.347656 319.0625 L 1001.304688 319.0625 L 1001.304688 324.410156 Z M 981.347656 308.777344 L 981.347656 303.644531 L 999.574219 303.644531 L 999.574219 308.777344 Z M 981.347656 294.113281 L 981.347656 288.761719 L 1001.066406 288.761719 L 1001.066406 294.113281 Z M 981.347656 294.113281 " fill-opacity="1" fill-rule="nonzero"/><path fill="#c9a96e" d="M 1021.636719 309.292969 L 1021.636719 304.4375 L 1030.652344 304.4375 C 1032.453125 304.4375 1033.855469 303.976562 1034.851562 303.046875 C 1035.855469 302.121094 1036.363281 300.816406 1036.363281 299.148438 C 1036.363281 297.664062 1035.867188 296.410156 1034.871094 295.386719 C 1033.886719 294.367188 1032.492188 293.855469 1030.691406 293.855469 L 1021.636719 293.855469 L 1021.636719 288.761719 L 1030.949219 288.761719 C 1033.1875 288.761719 1035.160156 289.214844 1036.859375 290.113281 C 1038.554688 291.019531 1039.871094 292.242188 1040.800781 293.796875 C 1041.738281 295.335938 1042.210938 297.089844 1042.210938 299.046875 C 1042.210938 301.117188 1041.738281 302.921875 1040.800781 304.457031 C 1039.871094 305.984375 1038.554688 307.175781 1036.859375 308.019531 C 1035.160156 308.871094 1033.1875 309.292969 1030.949219 309.292969 Z M 1017.617188 324.410156 L 1017.617188 288.761719 L 1023.46875 288.761719 L 1023.46875 324.410156 Z M 1037.179688 324.410156 L 1024.683594 308.933594 L 1030.136719 306.945312 L 1044.5625 324.410156 Z M 1037.179688 324.410156 " fill-opacity="1" fill-rule="nonzero"/><path fill="#c9a96e" d="M 1063.863281 309.292969 L 1063.863281 304.4375 L 1072.875 304.4375 C 1074.675781 304.4375 1076.082031 303.976562 1077.074219 303.046875 C 1078.078125 302.121094 1078.585938 300.816406 1078.585938 299.148438 C 1078.585938 297.664062 1078.089844 296.410156 1077.09375 295.386719 C 1076.109375 294.367188 1074.71875 293.855469 1072.917969 293.855469 L 1063.863281 293.855469 L 1063.863281 288.761719 L 1073.175781 288.761719 C 1075.414062 288.761719 1077.382812 289.214844 1079.085938 290.113281 C 1080.78125 291.019531 1082.09375 292.242188 1083.023438 293.796875 C 1083.964844 295.335938 1084.4375 297.089844 1084.4375 299.046875 C 1084.4375 301.117188 1083.964844 302.921875 1083.023438 304.457031 C 1082.09375 305.984375 1080.78125 307.175781 1079.085938 308.019531 C 1077.382812 308.871094 1075.414062 309.292969 1073.175781 309.292969 Z M 1059.84375 324.410156 L 1059.84375 288.761719 L 1065.695312 288.761719 L 1065.695312 324.410156 Z M 1079.402344 324.410156 L 1066.90625 308.933594 L 1072.359375 306.945312 L 1086.785156 324.410156 Z M 1079.402344 324.410156 " fill-opacity="1" fill-rule="nonzero"/><path fill="#c9a96e" d="M 1099.402344 324.410156 L 1114.085938 288.761719 L 1118.164062 288.761719 L 1132.730469 324.410156 L 1126.402344 324.410156 L 1115.003906 295.527344 L 1117.132812 295.527344 L 1105.628906 324.410156 Z M 1106.644531 317.527344 L 1106.644531 312.4375 L 1125.546875 312.4375 L 1125.546875 317.527344 Z M 1106.644531 317.527344 " fill-opacity="1" fill-rule="nonzero"/><path fill="#c9a96e" d="M 1159.820312 324.410156 L 1145.394531 288.761719 L 1151.761719 288.761719 L 1163.027344 317.648438 L 1160.796875 317.648438 L 1172.140625 288.761719 L 1178.40625 288.761719 L 1163.902344 324.410156 Z M 1159.820312 324.410156 " fill-opacity="1" fill-rule="nonzero"/><path fill="#c9a96e" d="M 1191.085938 324.410156 L 1205.769531 288.761719 L 1209.847656 288.761719 L 1224.414062 324.410156 L 1218.085938 324.410156 L 1206.683594 295.527344 L 1208.8125 295.527344 L 1197.3125 324.410156 Z M 1198.328125 317.527344 L 1198.328125 312.4375 L 1217.230469 312.4375 L 1217.230469 317.527344 Z M 1198.328125 317.527344 " fill-opacity="1" fill-rule="nonzero"/><path fill="#c9a96e" d="M 1239.746094 324.410156 L 1239.746094 288.761719 L 1243.804688 288.761719 L 1245.59375 295.488281 L 1245.59375 324.410156 Z M 1264.4375 324.410156 L 1243.105469 296.5625 L 1243.804688 288.761719 L 1265.152344 316.613281 Z M 1264.4375 324.410156 L 1262.667969 318.144531 L 1262.667969 288.761719 L 1268.515625 288.761719 L 1268.515625 324.410156 Z M 1264.4375 324.410156 " fill-opacity="1" fill-rule="nonzero"/><path fill="#c9a96e" d="M 1302.699219 324.929688 C 1300.113281 324.929688 1297.726562 324.460938 1295.535156 323.535156 C 1293.347656 322.597656 1291.4375 321.285156 1289.804688 319.597656 C 1288.171875 317.917969 1286.910156 315.96875 1286.023438 313.75 C 1285.148438 311.519531 1284.710938 309.132812 1284.710938 306.585938 C 1284.710938 304.039062 1285.148438 301.664062 1286.023438 299.445312 C 1286.910156 297.21875 1288.171875 295.277344 1289.804688 293.617188 C 1291.4375 291.945312 1293.347656 290.632812 1295.535156 289.675781 C 1297.726562 288.722656 1300.113281 288.246094 1302.699219 288.246094 C 1305.574219 288.246094 1308.070312 288.722656 1310.179688 289.675781 C 1312.289062 290.632812 1314.160156 291.925781 1315.792969 293.558594 L 1311.8125 297.515625 C 1310.761719 296.363281 1309.484375 295.464844 1307.972656 294.828125 C 1306.460938 294.183594 1304.699219 293.855469 1302.699219 293.855469 C 1300.933594 293.855469 1299.316406 294.164062 1297.84375 294.769531 C 1296.382812 295.382812 1295.117188 296.257812 1294.042969 297.394531 C 1292.980469 298.539062 1292.160156 299.894531 1291.578125 301.453125 C 1291.003906 303.007812 1290.71875 304.71875 1290.71875 306.585938 C 1290.71875 308.457031 1291.003906 310.179688 1291.578125 311.738281 C 1292.160156 313.292969 1292.980469 314.640625 1294.042969 315.777344 C 1295.117188 316.921875 1296.382812 317.796875 1297.84375 318.402344 C 1299.316406 319.015625 1300.933594 319.320312 1302.699219 319.320312 C 1304.859375 319.320312 1306.699219 318.992188 1308.210938 318.324219 C 1309.722656 317.664062 1311.007812 316.753906 1312.070312 315.597656 L 1316.03125 319.578125 C 1314.398438 321.238281 1312.480469 322.542969 1310.28125 323.496094 C 1308.078125 324.453125 1305.550781 324.929688 1302.699219 324.929688 Z M 1302.699219 324.929688 " fill-opacity="1" fill-rule="nonzero"/><path fill="#c9a96e" d="M 1331.527344 324.410156 L 1331.527344 288.761719 L 1337.378906 288.761719 L 1337.378906 324.410156 Z M 1335.546875 324.410156 L 1335.546875 319.0625 L 1355.503906 319.0625 L 1355.503906 324.410156 Z M 1335.546875 308.777344 L 1335.546875 303.644531 L 1353.773438 303.644531 L 1353.773438 308.777344 Z M 1335.546875 294.113281 L 1335.546875 288.761719 L 1355.265625 288.761719 L 1355.265625 294.113281 Z M 1335.546875 294.113281 " fill-opacity="1" fill-rule="nonzero"/><path fill="#c9a96e" d="M 932.898438 394.121094 L 947.582031 358.472656 L 951.660156 358.472656 L 966.226562 394.121094 L 959.898438 394.121094 L 948.496094 365.238281 L 950.625 365.238281 L 939.125 394.121094 Z M 940.140625 387.238281 L 940.140625 382.144531 L 959.042969 382.144531 L 959.042969 387.238281 Z M 940.140625 387.238281 " fill-opacity="1" fill-rule="nonzero"/><path fill="#c9a96e" d="M 985.578125 394.121094 L 985.578125 388.769531 L 994.949219 388.769531 C 997.386719 388.769531 999.53125 388.25 1001.375 387.199219 C 1003.230469 386.140625 1004.679688 384.667969 1005.714844 382.78125 C 1006.746094 380.902344 1007.265625 378.71875 1007.265625 376.238281 C 1007.265625 373.800781 1006.738281 371.652344 1005.691406 369.792969 C 1004.644531 367.921875 1003.191406 366.464844 1001.335938 365.414062 C 999.488281 364.355469 997.359375 363.824219 994.949219 363.824219 L 985.578125 363.824219 L 985.578125 358.472656 L 995.109375 358.472656 C 997.679688 358.472656 1000.066406 358.925781 1002.269531 359.824219 C 1004.484375 360.730469 1006.414062 361.988281 1008.0625 363.605469 C 1009.703125 365.210938 1010.984375 367.097656 1011.902344 369.253906 C 1012.816406 371.402344 1013.273438 373.75 1013.273438 376.296875 C 1013.273438 378.804688 1012.816406 381.148438 1011.902344 383.320312 C 1010.984375 385.5 1009.710938 387.394531 1008.082031 389.007812 C 1006.449219 390.617188 1004.527344 391.871094 1002.332031 392.769531 C 1000.125 393.675781 997.753906 394.121094 995.207031 394.121094 Z M 981.558594 394.121094 L 981.558594 358.472656 L 987.40625 358.472656 L 987.40625 394.121094 Z M 981.558594 394.121094 " fill-opacity="1" fill-rule="nonzero"/><path fill="#c9a96e" d="M 1041.246094 394.121094 L 1026.820312 358.472656 L 1033.1875 358.472656 L 1044.449219 387.359375 L 1042.222656 387.359375 L 1053.5625 358.472656 L 1059.832031 358.472656 L 1045.324219 394.121094 Z M 1041.246094 394.121094 " fill-opacity="1" fill-rule="nonzero"/><path fill="#c9a96e" d="M 1075.175781 358.472656 L 1081.023438 358.472656 L 1081.023438 394.121094 L 1075.175781 394.121094 Z M 1075.175781 358.472656 " fill-opacity="1" fill-rule="nonzero"/><path fill="#c9a96e" d="M 1108.941406 394.640625 C 1106.117188 394.640625 1103.714844 394.128906 1101.738281 393.109375 C 1099.773438 392.089844 1098.019531 390.597656 1096.464844 388.632812 L 1100.425781 384.652344 C 1101.40625 386.074219 1102.574219 387.1875 1103.925781 387.996094 C 1105.289062 388.789062 1107.03125 389.1875 1109.140625 389.1875 C 1111.101562 389.1875 1112.667969 388.785156 1113.835938 387.976562 C 1115.015625 387.15625 1115.605469 386.027344 1115.605469 384.59375 C 1115.605469 383.414062 1115.300781 382.453125 1114.691406 381.707031 C 1114.082031 380.953125 1113.269531 380.332031 1112.265625 379.839844 C 1111.269531 379.351562 1110.164062 378.914062 1108.960938 378.527344 C 1107.753906 378.128906 1106.542969 377.683594 1105.339844 377.191406 C 1104.132812 376.707031 1103.023438 376.089844 1102.015625 375.34375 C 1101.023438 374.585938 1100.214844 373.621094 1099.609375 372.4375 C 1098.996094 371.246094 1098.695312 369.734375 1098.695312 367.902344 C 1098.695312 365.792969 1099.210938 364.003906 1100.246094 362.53125 C 1101.28125 361.050781 1102.679688 359.914062 1104.445312 359.128906 C 1106.21875 358.347656 1108.191406 357.957031 1110.355469 357.957031 C 1112.703125 357.957031 1114.796875 358.421875 1116.640625 359.347656 C 1118.496094 360.261719 1120.003906 361.433594 1121.160156 362.847656 L 1117.179688 366.828125 C 1116.167969 365.675781 1115.109375 364.820312 1113.996094 364.261719 C 1112.890625 363.695312 1111.632812 363.40625 1110.214844 363.40625 C 1108.449219 363.40625 1107.0625 363.765625 1106.054688 364.480469 C 1105.0625 365.195312 1104.5625 366.203125 1104.5625 367.484375 C 1104.5625 368.574219 1104.867188 369.449219 1105.480469 370.109375 C 1106.085938 370.777344 1106.890625 371.339844 1107.886719 371.800781 C 1108.890625 372.253906 1110 372.6875 1111.210938 373.09375 C 1112.414062 373.492188 1113.617188 373.949219 1114.8125 374.46875 C 1116.015625 374.972656 1117.121094 375.632812 1118.113281 376.4375 C 1119.121094 377.230469 1119.929688 378.261719 1120.542969 379.519531 C 1121.164062 380.769531 1121.476562 382.339844 1121.476562 384.234375 C 1121.476562 387.433594 1120.34375 389.964844 1118.074219 391.835938 C 1115.816406 393.703125 1112.773438 394.640625 1108.941406 394.640625 Z M 1108.941406 394.640625 " fill-opacity="1" fill-rule="nonzero"/><path fill="#c9a96e" d="M 1153.964844 394.640625 C 1151.417969 394.640625 1149.035156 394.160156 1146.824219 393.207031 C 1144.617188 392.253906 1142.683594 390.9375 1141.011719 389.269531 C 1139.351562 387.585938 1138.050781 385.628906 1137.113281 383.398438 C 1136.183594 381.171875 1135.71875 378.785156 1135.71875 376.238281 C 1135.71875 373.691406 1136.183594 371.320312 1137.113281 369.117188 C 1138.050781 366.917969 1139.347656 364.972656 1140.992188 363.285156 C 1142.648438 361.605469 1144.574219 360.296875 1146.761719 359.367188 C 1148.953125 358.429688 1151.320312 357.957031 1153.867188 357.957031 C 1156.414062 357.957031 1158.78125 358.429688 1160.96875 359.367188 C 1163.160156 360.296875 1165.078125 361.605469 1166.742188 363.285156 C 1168.410156 364.972656 1169.710938 366.925781 1170.640625 369.15625 C 1171.582031 371.375 1172.054688 373.75 1172.054688 376.296875 C 1172.054688 378.84375 1171.582031 381.230469 1170.640625 383.460938 C 1169.710938 385.675781 1168.421875 387.617188 1166.78125 389.289062 C 1165.132812 390.949219 1163.207031 392.253906 1161.007812 393.207031 C 1158.820312 394.160156 1156.472656 394.640625 1153.964844 394.640625 Z M 1153.867188 389.03125 C 1156.277344 389.03125 1158.386719 388.488281 1160.195312 387.398438 C 1162.007812 386.3125 1163.4375 384.8125 1164.472656 382.902344 C 1165.515625 380.980469 1166.042969 378.757812 1166.042969 376.238281 C 1166.042969 374.382812 1165.746094 372.6875 1165.148438 371.144531 C 1164.550781 369.59375 1163.707031 368.25 1162.621094 367.105469 C 1161.53125 365.96875 1160.242188 365.09375 1158.761719 364.480469 C 1157.289062 363.875 1155.65625 363.566406 1153.867188 363.566406 C 1151.488281 363.566406 1149.394531 364.101562 1147.578125 365.175781 C 1145.757812 366.242188 1144.324219 367.722656 1143.28125 369.632812 C 1142.246094 371.53125 1141.730469 373.730469 1141.730469 376.238281 C 1141.730469 378.109375 1142.027344 379.832031 1142.625 381.410156 C 1143.222656 382.992188 1144.046875 384.34375 1145.113281 385.46875 C 1146.1875 386.582031 1147.46875 387.457031 1148.972656 388.09375 C 1150.46875 388.722656 1152.101562 389.03125 1153.867188 389.03125 Z M 1153.867188 389.03125 " fill-opacity="1" fill-rule="nonzero"/><path fill="#c9a96e" d="M 1192.269531 379.003906 L 1192.269531 374.148438 L 1201.28125 374.148438 C 1203.082031 374.148438 1204.484375 373.6875 1205.480469 372.757812 C 1206.484375 371.832031 1206.992188 370.527344 1206.992188 368.855469 C 1206.992188 367.375 1206.496094 366.121094 1205.5 365.097656 C 1204.515625 364.078125 1203.125 363.566406 1201.324219 363.566406 L 1192.269531 363.566406 L 1192.269531 358.472656 L 1201.582031 358.472656 C 1203.820312 358.472656 1205.789062 358.925781 1207.492188 359.824219 C 1209.1875 360.730469 1210.5 361.953125 1211.429688 363.503906 C 1212.371094 365.046875 1212.84375 366.796875 1212.84375 368.757812 C 1212.84375 370.828125 1212.371094 372.632812 1211.429688 374.167969 C 1210.5 375.695312 1209.1875 376.882812 1207.492188 377.730469 C 1205.789062 378.582031 1203.820312 379.003906 1201.582031 379.003906 Z M 1188.25 394.121094 L 1188.25 358.472656 L 1194.101562 358.472656 L 1194.101562 394.121094 Z M 1207.808594 394.121094 L 1195.3125 378.644531 L 1200.765625 376.65625 L 1215.191406 394.121094 Z M 1207.808594 394.121094 " fill-opacity="1" fill-rule="nonzero"/><path fill="#c9a96e" d="M 1241.617188 379.859375 L 1227.707031 358.472656 L 1234.492188 358.472656 L 1245.339844 375.542969 L 1242.175781 375.542969 L 1253.039062 358.472656 L 1259.703125 358.472656 L 1245.695312 379.859375 Z M 1240.800781 394.121094 L 1240.800781 376.199219 L 1246.671875 376.199219 L 1246.671875 394.121094 Z M 1240.800781 394.121094 " fill-opacity="1" fill-rule="nonzero"/><path fill="#c9a96e" d="M 951.660156 466.121094 C 949.203125 466.121094 946.890625 465.644531 944.714844 464.691406 C 942.550781 463.734375 940.65625 462.421875 939.027344 460.75 C 937.394531 459.070312 936.105469 457.109375 935.164062 454.882812 C 934.234375 452.652344 933.773438 450.265625 933.773438 447.71875 C 933.773438 445.175781 934.234375 442.800781 935.164062 440.597656 C 936.105469 438.398438 937.398438 436.457031 939.046875 434.769531 C 940.6875 433.089844 942.617188 431.78125 944.835938 430.851562 C 947.0625 429.910156 949.472656 429.4375 952.058594 429.4375 C 954.871094 429.4375 957.480469 429.984375 959.898438 431.070312 C 962.3125 432.160156 964.335938 433.707031 965.96875 435.703125 L 961.988281 439.683594 C 960.9375 438.1875 959.53125 437.039062 957.769531 436.242188 C 956.003906 435.445312 954.097656 435.046875 952.058594 435.046875 C 949.617188 435.046875 947.46875 435.585938 945.613281 436.660156 C 943.765625 437.722656 942.332031 439.207031 941.3125 441.117188 C 940.289062 443.015625 939.78125 445.214844 939.78125 447.71875 C 939.78125 450.242188 940.300781 452.464844 941.332031 454.386719 C 942.367188 456.292969 943.765625 457.796875 945.53125 458.878906 C 947.292969 459.96875 949.296875 460.511719 951.542969 460.511719 C 953.929688 460.511719 955.980469 460.085938 957.691406 459.21875 C 959.402344 458.34375 960.714844 457.050781 961.628906 455.339844 C 962.542969 453.628906 963.003906 451.515625 963.003906 448.992188 L 966.683594 451.660156 L 951.441406 451.660156 L 951.441406 446.308594 L 969.070312 446.308594 L 969.070312 447.125 C 969.070312 451.371094 968.316406 454.902344 966.804688 457.726562 C 965.289062 460.542969 963.226562 462.640625 960.613281 464.035156 C 958 465.425781 955.011719 466.121094 951.660156 466.121094 Z M 951.660156 466.121094 " fill-opacity="1" fill-rule="nonzero"/><path fill="#c9a96e" d="M 989.140625 450.484375 L 989.140625 445.632812 L 998.15625 445.632812 C 999.957031 445.632812 1001.359375 445.167969 1002.355469 444.238281 C 1003.359375 443.3125 1003.867188 442.011719 1003.867188 440.339844 C 1003.867188 438.859375 1003.367188 437.605469 1002.375 436.578125 C 1001.390625 435.558594 999.996094 435.046875 998.195312 435.046875 L 989.140625 435.046875 L 989.140625 429.957031 L 998.453125 429.957031 C 1000.691406 429.957031 1002.664062 430.40625 1004.363281 431.308594 C 1006.058594 432.214844 1007.375 433.4375 1008.304688 434.988281 C 1009.242188 436.53125 1009.714844 438.28125 1009.714844 440.242188 C 1009.714844 442.308594 1009.242188 444.113281 1008.304688 445.652344 C 1007.375 447.179688 1006.058594 448.367188 1004.363281 449.210938 C 1002.664062 450.0625 1000.691406 450.484375 998.453125 450.484375 Z M 985.121094 465.605469 L 985.121094 429.957031 L 990.972656 429.957031 L 990.972656 465.605469 Z M 1004.683594 465.605469 L 992.1875 450.128906 L 997.636719 448.136719 L 1012.0625 465.605469 Z M 1004.683594 465.605469 " fill-opacity="1" fill-rule="nonzero"/><path fill="#c9a96e" d="M 1043.742188 466.121094 C 1041.195312 466.121094 1038.8125 465.644531 1036.601562 464.691406 C 1034.394531 463.734375 1032.460938 462.421875 1030.789062 460.75 C 1029.128906 459.070312 1027.828125 457.109375 1026.890625 454.882812 C 1025.960938 452.652344 1025.496094 450.265625 1025.496094 447.71875 C 1025.496094 445.175781 1025.960938 442.800781 1026.890625 440.597656 C 1027.828125 438.398438 1029.125 436.457031 1030.769531 434.769531 C 1032.425781 433.089844 1034.351562 431.78125 1036.539062 430.851562 C 1038.730469 429.910156 1041.097656 429.4375 1043.644531 429.4375 C 1046.191406 429.4375 1048.558594 429.910156 1050.746094 430.851562 C 1052.9375 431.78125 1054.855469 433.089844 1056.519531 434.769531 C 1058.1875 436.457031 1059.488281 438.410156 1060.417969 440.636719 C 1061.359375 442.855469 1061.832031 445.234375 1061.832031 447.78125 C 1061.832031 450.328125 1061.359375 452.714844 1060.417969 454.941406 C 1059.488281 457.160156 1058.199219 459.101562 1056.558594 460.769531 C 1054.910156 462.433594 1052.984375 463.734375 1050.785156 464.691406 C 1048.597656 465.644531 1046.25 466.121094 1043.742188 466.121094 Z M 1043.644531 460.511719 C 1046.054688 460.511719 1048.164062 459.96875 1049.972656 458.878906 C 1051.785156 457.796875 1053.214844 456.292969 1054.25 454.386719 C 1055.292969 452.464844 1055.820312 450.242188 1055.820312 447.71875 C 1055.820312 445.867188 1055.523438 444.167969 1054.925781 442.628906 C 1054.328125 441.074219 1053.484375 439.734375 1052.398438 438.589844 C 1051.308594 437.449219 1050.019531 436.574219 1048.539062 435.964844 C 1047.066406 435.355469 1045.433594 435.046875 1043.644531 435.046875 C 1041.265625 435.046875 1039.171875 435.585938 1037.355469 436.660156 C 1035.535156 437.722656 1034.101562 439.207031 1033.058594 441.117188 C 1032.023438 443.015625 1031.507812 445.214844 1031.507812 447.71875 C 1031.507812 449.589844 1031.804688 451.316406 1032.402344 452.894531 C 1033 454.472656 1033.824219 455.828125 1034.886719 456.949219 C 1035.964844 458.066406 1037.246094 458.941406 1038.75 459.578125 C 1040.246094 460.203125 1041.878906 460.511719 1043.644531 460.511719 Z M 1043.644531 460.511719 " fill-opacity="1" fill-rule="nonzero"/><path fill="#c9a96e" d="M 1091.777344 466.121094 C 1089.09375 466.121094 1086.683594 465.515625 1084.535156 464.292969 C 1082.394531 463.058594 1080.703125 461.382812 1079.460938 459.257812 C 1078.226562 457.140625 1077.609375 454.738281 1077.609375 452.058594 L 1077.609375 429.957031 L 1083.460938 429.957031 L 1083.460938 451.996094 C 1083.460938 453.738281 1083.820312 455.242188 1084.554688 456.511719 C 1085.292969 457.785156 1086.289062 458.777344 1087.539062 459.476562 C 1088.796875 460.167969 1090.210938 460.511719 1091.777344 460.511719 C 1093.367188 460.511719 1094.769531 460.167969 1095.996094 459.476562 C 1097.214844 458.777344 1098.183594 457.785156 1098.898438 456.511719 C 1099.617188 455.242188 1099.972656 453.757812 1099.972656 452.058594 L 1099.972656 429.957031 L 1105.824219 429.957031 L 1105.824219 452.117188 C 1105.824219 454.796875 1105.210938 457.191406 1103.992188 459.296875 C 1102.769531 461.398438 1101.109375 463.058594 1099 464.292969 C 1096.898438 465.515625 1094.492188 466.121094 1091.777344 466.121094 Z M 1091.777344 466.121094 " fill-opacity="1" fill-rule="nonzero"/><path fill="#c9a96e" d="M 1127.429688 452.15625 L 1127.429688 447.0625 L 1136.34375 447.0625 C 1137.5625 447.0625 1138.636719 446.820312 1139.566406 446.328125 C 1140.507812 445.839844 1141.246094 445.144531 1141.796875 444.238281 C 1142.335938 443.339844 1142.609375 442.28125 1142.609375 441.054688 C 1142.609375 439.835938 1142.335938 438.777344 1141.796875 437.871094 C 1141.246094 436.972656 1140.507812 436.277344 1139.566406 435.785156 C 1138.636719 435.296875 1137.5625 435.046875 1136.34375 435.046875 L 1127.429688 435.046875 L 1127.429688 429.957031 L 1136.640625 429.957031 C 1138.878906 429.957031 1140.890625 430.414062 1142.671875 431.328125 C 1144.460938 432.242188 1145.875 433.535156 1146.910156 435.207031 C 1147.945312 436.867188 1148.460938 438.816406 1148.460938 441.054688 C 1148.460938 443.300781 1147.945312 445.253906 1146.910156 446.925781 C 1145.875 448.585938 1144.460938 449.867188 1142.671875 450.785156 C 1140.890625 451.699219 1138.878906 452.15625 1136.640625 452.15625 Z M 1123.410156 465.605469 L 1123.410156 429.957031 L 1129.257812 429.957031 L 1129.257812 465.605469 Z M 1123.410156 465.605469 " fill-opacity="1" fill-rule="nonzero"/><path fill="#e8e4dc" d="M 941.8125 535.960938 C 940.578125 535.960938 939.429688 535.726562 938.367188 535.265625 C 937.304688 534.789062 936.378906 534.140625 935.582031 533.316406 C 934.789062 532.496094 934.160156 531.539062 933.710938 530.449219 C 933.261719 529.351562 933.035156 528.171875 933.035156 526.910156 C 933.035156 525.636719 933.253906 524.464844 933.691406 523.390625 C 934.128906 522.304688 934.746094 521.355469 935.542969 520.542969 C 936.347656 519.722656 937.28125 519.085938 938.328125 518.632812 C 939.375 518.171875 940.523438 517.9375 941.769531 517.9375 C 943.003906 517.9375 944.148438 518.171875 945.214844 518.632812 C 946.273438 519.085938 947.203125 519.722656 948 520.542969 C 948.804688 521.355469 949.433594 522.308594 949.871094 523.410156 C 950.308594 524.496094 950.527344 525.675781 950.527344 526.949219 C 950.527344 528.199219 950.308594 529.371094 949.871094 530.472656 C 949.433594 531.574219 948.816406 532.53125 948.019531 533.335938 C 947.234375 534.144531 946.3125 534.789062 945.253906 535.265625 C 944.203125 535.726562 943.054688 535.960938 941.8125 535.960938 Z M 941.769531 534.152344 C 943.09375 534.152344 944.269531 533.84375 945.292969 533.214844 C 946.328125 532.578125 947.132812 531.71875 947.722656 530.628906 C 948.304688 529.546875 948.597656 528.300781 948.597656 526.910156 C 948.597656 525.875 948.421875 524.921875 948.078125 524.046875 C 947.746094 523.167969 947.273438 522.410156 946.667969 521.757812 C 946.054688 521.109375 945.332031 520.605469 944.496094 520.246094 C 943.671875 519.886719 942.765625 519.707031 941.769531 519.707031 C 940.457031 519.707031 939.285156 520.023438 938.25 520.644531 C 937.226562 521.269531 936.425781 522.125 935.84375 523.210938 C 935.253906 524.285156 934.964844 525.515625 934.964844 526.910156 C 934.964844 527.945312 935.128906 528.910156 935.464844 529.792969 C 935.808594 530.683594 936.285156 531.457031 936.894531 532.101562 C 937.503906 532.753906 938.230469 533.257812 939.066406 533.613281 C 939.902344 533.972656 940.800781 534.152344 941.769531 534.152344 Z M 941.769531 534.152344 " fill-opacity="1" fill-rule="nonzero"/><path fill="#e8e4dc" d="M 959.796875 535.703125 L 959.796875 534.050781 L 965.347656 534.050781 C 966.503906 534.050781 967.410156 533.734375 968.074219 533.097656 C 968.738281 532.449219 969.070312 531.640625 969.070312 530.667969 C 969.070312 530.035156 968.921875 529.464844 968.632812 528.957031 C 968.339844 528.441406 967.925781 528.039062 967.398438 527.746094 C 966.867188 527.457031 966.234375 527.308594 965.507812 527.308594 L 959.796875 527.308594 L 959.796875 525.675781 L 965.210938 525.675781 C 966.164062 525.675781 966.910156 525.429688 967.457031 524.921875 C 968.015625 524.402344 968.292969 523.675781 968.292969 522.730469 C 968.292969 521.808594 967.996094 521.089844 967.398438 520.582031 C 966.8125 520.066406 966.015625 519.808594 965.011719 519.808594 L 959.796875 519.808594 L 959.796875 518.175781 L 965.070312 518.175781 C 966.15625 518.175781 967.078125 518.375 967.835938 518.773438 C 968.601562 519.160156 969.179688 519.683594 969.566406 520.34375 C 969.964844 521.011719 970.164062 521.757812 970.164062 522.59375 C 970.164062 523.578125 969.90625 524.417969 969.386719 525.121094 C 968.878906 525.824219 968.140625 526.363281 967.160156 526.730469 L 967.339844 526.132812 C 968.464844 526.492188 969.347656 527.078125 969.984375 527.882812 C 970.621094 528.695312 970.941406 529.664062 970.941406 530.789062 C 970.941406 531.71875 970.710938 532.554688 970.265625 533.296875 C 969.824219 534.042969 969.175781 534.628906 968.3125 535.066406 C 967.449219 535.492188 966.414062 535.703125 965.210938 535.703125 Z M 958.605469 535.703125 L 958.605469 518.175781 L 960.453125 518.175781 L 960.453125 535.703125 Z M 958.605469 535.703125 " fill-opacity="1" fill-rule="nonzero"/><path fill="#e8e4dc" d="M 983.808594 535.960938 C 982.441406 535.960938 981.265625 535.703125 980.285156 535.1875 C 979.300781 534.667969 978.441406 533.941406 977.699219 532.996094 L 978.992188 531.722656 C 979.589844 532.558594 980.277344 533.1875 981.0625 533.59375 C 981.859375 533.992188 982.796875 534.191406 983.886719 534.191406 C 985 534.191406 985.902344 533.941406 986.59375 533.433594 C 987.292969 532.933594 987.648438 532.230469 987.648438 531.328125 C 987.648438 530.625 987.480469 530.054688 987.152344 529.617188 C 986.832031 529.167969 986.414062 528.800781 985.898438 528.519531 C 985.378906 528.234375 984.808594 527.980469 984.1875 527.765625 C 983.558594 527.542969 982.9375 527.308594 982.316406 527.070312 C 981.6875 526.820312 981.113281 526.507812 980.585938 526.132812 C 980.066406 525.765625 979.648438 525.292969 979.332031 524.722656 C 979.023438 524.140625 978.875 523.398438 978.875 522.492188 C 978.875 521.539062 979.097656 520.722656 979.550781 520.046875 C 980.011719 519.371094 980.644531 518.851562 981.441406 518.496094 C 982.234375 518.125 983.140625 517.9375 984.164062 517.9375 C 985.304688 517.9375 986.320312 518.15625 987.210938 518.59375 C 988.097656 519.03125 988.84375 519.625 989.4375 520.363281 L 988.164062 521.636719 C 987.617188 521 987.019531 520.519531 986.375 520.1875 C 985.722656 519.84375 984.96875 519.667969 984.105469 519.667969 C 983.082031 519.667969 982.265625 519.90625 981.660156 520.382812 C 981.046875 520.851562 980.742188 521.507812 980.742188 522.355469 C 980.742188 523.019531 980.902344 523.558594 981.222656 523.964844 C 981.539062 524.378906 981.957031 524.722656 982.476562 525 C 983 525.269531 983.574219 525.507812 984.1875 525.714844 C 984.808594 525.929688 985.429688 526.164062 986.054688 526.414062 C 986.691406 526.667969 987.269531 526.988281 987.789062 527.386719 C 988.304688 527.773438 988.722656 528.273438 989.039062 528.878906 C 989.371094 529.476562 989.539062 530.242188 989.539062 531.167969 C 989.539062 532.679688 989.019531 533.863281 987.984375 534.707031 C 986.960938 535.542969 985.570312 535.960938 983.808594 535.960938 Z M 983.808594 535.960938 " fill-opacity="1" fill-rule="nonzero"/><path fill="#e8e4dc" d="M 997.535156 535.703125 L 997.535156 518.175781 L 999.382812 518.175781 L 999.382812 535.703125 Z M 998.746094 535.703125 L 998.746094 533.992188 L 1009.054688 533.992188 L 1009.054688 535.703125 Z M 998.746094 527.546875 L 998.746094 525.894531 L 1008.257812 525.894531 L 1008.257812 527.546875 Z M 998.746094 519.886719 L 998.746094 518.175781 L 1008.914062 518.175781 L 1008.914062 519.886719 Z M 998.746094 519.886719 " fill-opacity="1" fill-rule="nonzero"/><path fill="#e8e4dc" d="M 1018.179688 527.863281 L 1018.179688 526.273438 L 1023.273438 526.273438 C 1024.429688 526.273438 1025.308594 525.984375 1025.921875 525.398438 C 1026.527344 524.816406 1026.835938 524.035156 1026.835938 523.050781 C 1026.835938 522.09375 1026.527344 521.320312 1025.921875 520.722656 C 1025.308594 520.117188 1024.429688 519.808594 1023.273438 519.808594 L 1018.179688 519.808594 L 1018.179688 518.175781 L 1023.273438 518.175781 C 1024.414062 518.175781 1025.386719 518.390625 1026.199219 518.8125 C 1027.003906 519.226562 1027.632812 519.796875 1028.070312 520.523438 C 1028.507812 521.253906 1028.726562 522.089844 1028.726562 523.03125 C 1028.726562 524 1028.507812 524.851562 1028.070312 525.578125 C 1027.632812 526.308594 1027.003906 526.871094 1026.199219 527.269531 C 1025.386719 527.664062 1024.414062 527.863281 1023.273438 527.863281 Z M 1016.988281 535.703125 L 1016.988281 518.175781 L 1018.835938 518.175781 L 1018.835938 535.703125 Z M 1027.574219 535.703125 L 1021.007812 527.605469 L 1022.816406 527.027344 L 1029.960938 535.703125 Z M 1027.574219 535.703125 " fill-opacity="1" fill-rule="nonzero"/><path fill="#e8e4dc" d="M 1043.230469 535.703125 L 1036.246094 518.175781 L 1038.296875 518.175781 L 1044.324219 533.632812 L 1043.589844 533.632812 L 1049.675781 518.175781 L 1051.667969 518.175781 L 1044.625 535.703125 Z M 1043.230469 535.703125 " fill-opacity="1" fill-rule="nonzero"/><path fill="#e8e4dc" d="M 1059.304688 535.703125 L 1059.304688 518.175781 L 1061.152344 518.175781 L 1061.152344 535.703125 Z M 1060.515625 535.703125 L 1060.515625 533.992188 L 1070.824219 533.992188 L 1070.824219 535.703125 Z M 1060.515625 527.546875 L 1060.515625 525.894531 L 1070.027344 525.894531 L 1070.027344 527.546875 Z M 1060.515625 519.886719 L 1060.515625 518.175781 L 1070.683594 518.175781 L 1070.683594 519.886719 Z M 1060.515625 519.886719 " fill-opacity="1" fill-rule="nonzero"/><path fill="#e8e4dc" d="M 1087.890625 527.964844 C 1087.464844 527.964844 1087.113281 527.820312 1086.835938 527.527344 C 1086.566406 527.238281 1086.4375 526.890625 1086.4375 526.492188 C 1086.4375 526.085938 1086.566406 525.734375 1086.835938 525.457031 C 1087.113281 525.179688 1087.464844 525.039062 1087.890625 525.039062 C 1088.289062 525.039062 1088.617188 525.179688 1088.886719 525.457031 C 1089.164062 525.734375 1089.304688 526.085938 1089.304688 526.492188 C 1089.304688 526.890625 1089.164062 527.238281 1088.886719 527.527344 C 1088.617188 527.820312 1088.289062 527.964844 1087.890625 527.964844 Z M 1087.890625 527.964844 " fill-opacity="1" fill-rule="nonzero"/><path fill="#e8e4dc" d="M 1107.09375 535.703125 L 1107.09375 533.972656 L 1112.25 533.972656 C 1113.609375 533.972656 1114.820312 533.671875 1115.871094 533.078125 C 1116.929688 532.46875 1117.761719 531.632812 1118.355469 530.570312 C 1118.953125 529.511719 1119.253906 528.292969 1119.253906 526.910156 C 1119.253906 525.546875 1118.953125 524.339844 1118.355469 523.289062 C 1117.761719 522.230469 1116.929688 521.398438 1115.871094 520.800781 C 1114.820312 520.195312 1113.609375 519.886719 1112.25 519.886719 L 1107.152344 519.886719 L 1107.152344 518.175781 L 1112.289062 518.175781 C 1113.5625 518.175781 1114.734375 518.394531 1115.808594 518.832031 C 1116.894531 519.269531 1117.84375 519.886719 1118.65625 520.683594 C 1119.460938 521.46875 1120.085938 522.390625 1120.527344 523.449219 C 1120.964844 524.511719 1121.183594 525.675781 1121.183594 526.949219 C 1121.183594 528.183594 1120.964844 529.335938 1120.527344 530.410156 C 1120.085938 531.476562 1119.460938 532.402344 1118.65625 533.195312 C 1117.859375 533.980469 1116.925781 534.597656 1115.847656 535.046875 C 1114.773438 535.484375 1113.605469 535.703125 1112.347656 535.703125 Z M 1105.960938 535.703125 L 1105.960938 518.175781 L 1107.8125 518.175781 L 1107.8125 535.703125 Z M 1105.960938 535.703125 " fill-opacity="1" fill-rule="nonzero"/><path fill="#e8e4dc" d="M 1129.230469 535.703125 L 1129.230469 518.175781 L 1131.082031 518.175781 L 1131.082031 535.703125 Z M 1130.445312 535.703125 L 1130.445312 533.992188 L 1140.753906 533.992188 L 1140.753906 535.703125 Z M 1130.445312 527.546875 L 1130.445312 525.894531 L 1139.957031 525.894531 L 1139.957031 527.546875 Z M 1130.445312 519.886719 L 1130.445312 518.175781 L 1140.613281 518.175781 L 1140.613281 519.886719 Z M 1130.445312 519.886719 " fill-opacity="1" fill-rule="nonzero"/><path fill="#e8e4dc" d="M 1153.539062 535.703125 L 1153.539062 518.675781 L 1155.429688 518.675781 L 1155.429688 535.703125 Z M 1147.371094 519.886719 L 1147.371094 518.175781 L 1161.597656 518.175781 L 1161.597656 519.886719 Z M 1147.371094 519.886719 " fill-opacity="1" fill-rule="nonzero"/><path fill="#e8e4dc" d="M 1169.230469 535.703125 L 1169.230469 518.175781 L 1171.082031 518.175781 L 1171.082031 535.703125 Z M 1170.445312 535.703125 L 1170.445312 533.992188 L 1180.753906 533.992188 L 1180.753906 535.703125 Z M 1170.445312 527.546875 L 1170.445312 525.894531 L 1179.957031 525.894531 L 1179.957031 527.546875 Z M 1170.445312 519.886719 L 1170.445312 518.175781 L 1180.613281 518.175781 L 1180.613281 519.886719 Z M 1170.445312 519.886719 " fill-opacity="1" fill-rule="nonzero"/><path fill="#e8e4dc" d="M 1196.625 535.960938 C 1195.359375 535.960938 1194.195312 535.734375 1193.121094 535.285156 C 1192.046875 534.824219 1191.101562 534.171875 1190.296875 533.335938 C 1189.5 532.5 1188.882812 531.539062 1188.445312 530.449219 C 1188.019531 529.351562 1187.808594 528.171875 1187.808594 526.910156 C 1187.808594 525.667969 1188.019531 524.496094 1188.445312 523.410156 C 1188.882812 522.308594 1189.488281 521.355469 1190.277344 520.542969 C 1191.070312 519.722656 1192.007812 519.085938 1193.082031 518.632812 C 1194.15625 518.171875 1195.308594 517.9375 1196.542969 517.9375 C 1197.882812 517.9375 1199.082031 518.175781 1200.144531 518.652344 C 1201.203125 519.121094 1202.136719 519.769531 1202.929688 520.605469 L 1201.65625 521.875 C 1201.046875 521.199219 1200.308594 520.671875 1199.449219 520.285156 C 1198.582031 519.902344 1197.617188 519.707031 1196.542969 519.707031 C 1195.558594 519.707031 1194.660156 519.886719 1193.835938 520.246094 C 1193.011719 520.605469 1192.289062 521.109375 1191.667969 521.757812 C 1191.042969 522.410156 1190.566406 523.167969 1190.238281 524.046875 C 1189.902344 524.921875 1189.738281 525.875 1189.738281 526.910156 C 1189.738281 527.945312 1189.90625 528.910156 1190.257812 529.792969 C 1190.597656 530.683594 1191.078125 531.457031 1191.6875 532.101562 C 1192.296875 532.753906 1193.011719 533.257812 1193.835938 533.613281 C 1194.671875 533.972656 1195.578125 534.152344 1196.5625 534.152344 C 1197.6875 534.152344 1198.691406 533.960938 1199.570312 533.574219 C 1200.445312 533.175781 1201.183594 532.640625 1201.796875 531.964844 L 1203.070312 533.257812 C 1202.285156 534.089844 1201.347656 534.757812 1200.265625 535.246094 C 1199.175781 535.722656 1197.960938 535.960938 1196.625 535.960938 Z M 1196.625 535.960938 " fill-opacity="1" fill-rule="nonzero"/><path fill="#e8e4dc" d="M 1215.640625 535.703125 L 1215.640625 518.675781 L 1217.53125 518.675781 L 1217.53125 535.703125 Z M 1209.472656 519.886719 L 1209.472656 518.175781 L 1223.699219 518.175781 L 1223.699219 519.886719 Z M 1209.472656 519.886719 " fill-opacity="1" fill-rule="nonzero"/><path fill="#e8e4dc" d="M 1230.535156 527.964844 C 1230.109375 527.964844 1229.761719 527.820312 1229.480469 527.527344 C 1229.210938 527.238281 1229.082031 526.890625 1229.082031 526.492188 C 1229.082031 526.085938 1229.210938 525.734375 1229.480469 525.457031 C 1229.761719 525.179688 1230.109375 525.039062 1230.535156 525.039062 C 1230.933594 525.039062 1231.261719 525.179688 1231.53125 525.457031 C 1231.808594 525.734375 1231.949219 526.085938 1231.949219 526.492188 C 1231.949219 526.890625 1231.808594 527.238281 1231.53125 527.527344 C 1231.261719 527.820312 1230.933594 527.964844 1230.535156 527.964844 Z M 1230.535156 527.964844 " fill-opacity="1" fill-rule="nonzero"/><path fill="#e8e4dc" d="M 1249.789062 528.679688 L 1249.789062 527.027344 L 1254.964844 527.027344 C 1255.664062 527.027344 1256.300781 526.886719 1256.875 526.589844 C 1257.441406 526.304688 1257.894531 525.890625 1258.226562 525.359375 C 1258.554688 524.816406 1258.726562 524.175781 1258.726562 523.429688 C 1258.726562 522.6875 1258.554688 522.050781 1258.226562 521.519531 C 1257.894531 520.976562 1257.441406 520.558594 1256.875 520.265625 C 1256.300781 519.960938 1255.664062 519.808594 1254.964844 519.808594 L 1249.789062 519.808594 L 1249.789062 518.175781 L 1255.082031 518.175781 C 1256.128906 518.175781 1257.074219 518.394531 1257.910156 518.832031 C 1258.746094 519.269531 1259.402344 519.882812 1259.878906 520.664062 C 1260.367188 521.433594 1260.613281 522.355469 1260.613281 523.429688 C 1260.613281 524.476562 1260.367188 525.398438 1259.878906 526.195312 C 1259.402344 526.980469 1258.746094 527.585938 1257.910156 528.023438 C 1257.074219 528.460938 1256.128906 528.679688 1255.082031 528.679688 Z M 1248.597656 535.703125 L 1248.597656 518.175781 L 1250.449219 518.175781 L 1250.449219 535.703125 Z M 1248.597656 535.703125 " fill-opacity="1" fill-rule="nonzero"/><path fill="#e8e4dc" d="M 1269.726562 527.863281 L 1269.726562 526.273438 L 1274.820312 526.273438 C 1275.976562 526.273438 1276.855469 525.984375 1277.46875 525.398438 C 1278.074219 524.816406 1278.382812 524.035156 1278.382812 523.050781 C 1278.382812 522.09375 1278.074219 521.320312 1277.46875 520.722656 C 1276.855469 520.117188 1275.976562 519.808594 1274.820312 519.808594 L 1269.726562 519.808594 L 1269.726562 518.175781 L 1274.820312 518.175781 C 1275.960938 518.175781 1276.933594 518.390625 1277.746094 518.8125 C 1278.550781 519.226562 1279.179688 519.796875 1279.617188 520.523438 C 1280.054688 521.253906 1280.273438 522.089844 1280.273438 523.03125 C 1280.273438 524 1280.054688 524.851562 1279.617188 525.578125 C 1279.179688 526.308594 1278.550781 526.871094 1277.746094 527.269531 C 1276.933594 527.664062 1275.960938 527.863281 1274.820312 527.863281 Z M 1268.53125 535.703125 L 1268.53125 518.175781 L 1270.382812 518.175781 L 1270.382812 535.703125 Z M 1279.117188 535.703125 L 1272.550781 527.605469 L 1274.363281 527.027344 L 1281.507812 535.703125 Z M 1279.117188 535.703125 " fill-opacity="1" fill-rule="nonzero"/><path fill="#e8e4dc" d="M 1296.984375 535.960938 C 1295.75 535.960938 1294.601562 535.726562 1293.542969 535.265625 C 1292.480469 534.789062 1291.554688 534.140625 1290.757812 533.316406 C 1289.960938 532.496094 1289.335938 531.539062 1288.886719 530.449219 C 1288.433594 529.351562 1288.210938 528.171875 1288.210938 526.910156 C 1288.210938 525.636719 1288.429688 524.464844 1288.867188 523.390625 C 1289.304688 522.304688 1289.921875 521.355469 1290.71875 520.542969 C 1291.523438 519.722656 1292.453125 519.085938 1293.503906 518.632812 C 1294.546875 518.171875 1295.695312 517.9375 1296.945312 517.9375 C 1298.179688 517.9375 1299.324219 518.171875 1300.386719 518.632812 C 1301.449219 519.085938 1302.378906 519.722656 1303.171875 520.542969 C 1303.980469 521.355469 1304.605469 522.308594 1305.042969 523.410156 C 1305.480469 524.496094 1305.699219 525.675781 1305.699219 526.949219 C 1305.699219 528.199219 1305.480469 529.371094 1305.042969 530.472656 C 1304.605469 531.574219 1303.988281 532.53125 1303.195312 533.335938 C 1302.40625 534.144531 1301.488281 534.789062 1300.429688 535.265625 C 1299.378906 535.726562 1298.230469 535.960938 1296.984375 535.960938 Z M 1296.945312 534.152344 C 1298.269531 534.152344 1299.441406 533.84375 1300.46875 533.214844 C 1301.503906 532.578125 1302.308594 531.71875 1302.894531 530.628906 C 1303.476562 529.546875 1303.769531 528.300781 1303.769531 526.910156 C 1303.769531 525.875 1303.597656 524.921875 1303.253906 524.046875 C 1302.921875 523.167969 1302.449219 522.410156 1301.839844 521.757812 C 1301.230469 521.109375 1300.507812 520.605469 1299.671875 520.246094 C 1298.847656 519.886719 1297.941406 519.707031 1296.945312 519.707031 C 1295.632812 519.707031 1294.457031 520.023438 1293.425781 520.644531 C 1292.398438 521.269531 1291.597656 522.125 1291.015625 523.210938 C 1290.429688 524.285156 1290.140625 525.515625 1290.140625 526.910156 C 1290.140625 527.945312 1290.304688 528.910156 1290.636719 529.792969 C 1290.980469 530.683594 1291.457031 531.457031 1292.070312 532.101562 C 1292.675781 532.753906 1293.402344 533.257812 1294.238281 533.613281 C 1295.074219 533.972656 1295.976562 534.152344 1296.945312 534.152344 Z M 1296.945312 534.152344 " fill-opacity="1" fill-rule="nonzero"/><path fill="#e8e4dc" d="M 1318.632812 535.703125 L 1318.632812 518.675781 L 1320.523438 518.675781 L 1320.523438 535.703125 Z M 1312.464844 519.886719 L 1312.464844 518.175781 L 1326.691406 518.175781 L 1326.691406 519.886719 Z M 1312.464844 519.886719 " fill-opacity="1" fill-rule="nonzero"/><path fill="#e8e4dc" d="M 1334.324219 535.703125 L 1334.324219 518.175781 L 1336.175781 518.175781 L 1336.175781 535.703125 Z M 1335.539062 535.703125 L 1335.539062 533.992188 L 1345.847656 533.992188 L 1345.847656 535.703125 Z M 1335.539062 527.546875 L 1335.539062 525.894531 L 1345.050781 525.894531 L 1345.050781 527.546875 Z M 1335.539062 519.886719 L 1335.539062 518.175781 L 1345.707031 518.175781 L 1345.707031 519.886719 Z M 1335.539062 519.886719 " fill-opacity="1" fill-rule="nonzero"/><path fill="#e8e4dc" d="M 1361.71875 535.960938 C 1360.453125 535.960938 1359.289062 535.734375 1358.214844 535.285156 C 1357.140625 534.824219 1356.195312 534.171875 1355.390625 533.335938 C 1354.59375 532.5 1353.976562 531.539062 1353.539062 530.449219 C 1353.109375 529.351562 1352.902344 528.171875 1352.902344 526.910156 C 1352.902344 525.667969 1353.109375 524.496094 1353.539062 523.410156 C 1353.976562 522.308594 1354.582031 521.355469 1355.371094 520.542969 C 1356.164062 519.722656 1357.101562 519.085938 1358.175781 518.632812 C 1359.25 518.171875 1360.402344 517.9375 1361.636719 517.9375 C 1362.976562 517.9375 1364.175781 518.175781 1365.238281 518.652344 C 1366.296875 519.121094 1367.230469 519.769531 1368.023438 520.605469 L 1366.75 521.875 C 1366.140625 521.199219 1365.402344 520.671875 1364.542969 520.285156 C 1363.675781 519.902344 1362.710938 519.707031 1361.636719 519.707031 C 1360.652344 519.707031 1359.75 519.886719 1358.929688 520.246094 C 1358.105469 520.605469 1357.382812 521.109375 1356.761719 521.757812 C 1356.136719 522.410156 1355.65625 523.167969 1355.328125 524.046875 C 1354.996094 524.921875 1354.832031 525.875 1354.832031 526.910156 C 1354.832031 527.945312 1355 528.910156 1355.347656 529.792969 C 1355.691406 530.683594 1356.171875 531.457031 1356.78125 532.101562 C 1357.390625 532.753906 1358.105469 533.257812 1358.929688 533.613281 C 1359.765625 533.972656 1360.671875 534.152344 1361.65625 534.152344 C 1362.78125 534.152344 1363.785156 533.960938 1364.660156 533.574219 C 1365.539062 533.175781 1366.277344 532.640625 1366.890625 531.964844 L 1368.164062 533.257812 C 1367.378906 534.089844 1366.441406 534.757812 1365.359375 535.246094 C 1364.269531 535.722656 1363.054688 535.960938 1361.71875 535.960938 Z M 1361.71875 535.960938 " fill-opacity="1" fill-rule="nonzero"/><path fill="#e8e4dc" d="M 1380.734375 535.703125 L 1380.734375 518.675781 L 1382.625 518.675781 L 1382.625 535.703125 Z M 1374.566406 519.886719 L 1374.566406 518.175781 L 1388.792969 518.175781 L 1388.792969 519.886719 Z M 1374.566406 519.886719 " fill-opacity="1" fill-rule="nonzero"/><path stroke-linecap="butt" transform="matrix(-0.955094, 0.00199283, -0.00199324, -0.954898, 1389.9836, 496.397395)" fill="none" stroke-linejoin="miter" d="M 0.00319626 1.999292 L 477.856116 1.998405 " stroke="#c9a96e" stroke-width="4" stroke-opacity="1" stroke-miterlimit="4"/></svg>